<!DOCTYPE svg PUBLIC "-//W3C//DTD SVG 1.1//EN" "http://www.w3.org/Graphics/SVG/1.1/DTD/svg11.dtd">
<!-- Uploaded to: SVG Repo, www.svgrepo.com, Transformed by: SVG Repo Mixer Tools -->
<svg height="256px" width="256px" version="1.1" id="Layer_1" xmlns="http://www.w3.org/2000/svg" xmlns:xlink="http://www.w3.org/1999/xlink" viewBox="-25.6 -25.6 563.20 563.20" xml:space="preserve" fill="#000000" stroke="#000000" stroke-width="0.00512">
<g id="SVGRepo_bgCarrier" stroke-width="0"/>
<g id="SVGRepo_tracerCarrier" stroke-linecap="round" stroke-linejoin="round" stroke="#CCCCCC" stroke-width="9.216"> <path style="fill:#e3e3e3;" d="M256,512c141.392,0,256-114.608,256-256S397.392,0,256,0S0,114.608,0,256S114.608,512,256,512z"/> <polygon points="419.12,88.96 329.136,37.008 329.136,76.96 241.216,76.96 241.216,100.96 329.136,100.96 329.136,140.912 "/> <circle cx="202.368" cy="461.056" r="50.944"/> <circle cx="385.76" cy="461.056" r="50.944"/> <polygon points="153.712,195.024 178.816,195.024 125.2,36.352 0,36.352 0,60.352 107.456,60.352 "/> <polygon style="fill:#00aaff;" points="102.944,195.024 154.416,387.024 430.736,387.024 512,195.024 178.816,195.024 153.712,195.024 "/> </g>
<g id="SVGRepo_iconCarrier"> <path style="fill:#e3e3e3;" d="M256,512c141.392,0,256-114.608,256-256S397.392,0,256,0S0,114.608,0,256S114.608,512,256,512z"/> <polygon points="419.12,88.96 329.136,37.008 329.136,76.96 241.216,76.96 241.216,100.96 329.136,100.96 329.136,140.912 "/> <circle cx="202.368" cy="461.056" r="50.944"/> <circle cx="385.76" cy="461.056" r="50.944"/> <polygon points="153.712,195.024 178.816,195.024 125.2,36.352 0,36.352 0,60.352 107.456,60.352 "/> <polygon style="fill:#00aaff;" points="102.944,195.024 154.416,387.024 430.736,387.024 512,195.024 178.816,195.024 153.712,195.024 "/> </g>
</svg>